HIERARCHY
ROOT Hips
{
	OFFSET	0.00	0.00	0.00
	CHANNELS 6 Xposition Yposition Zposition Zrotation Xrotation Yrotation
	JOINT LeftUpLeg
	{
		OFFSET	 0.126116	-0.014019	-0.065224
		CHANNELS 3 Zrotation Xrotation Yrotation
		JOINT LeftLeg
		{
			OFFSET	 0.000000	 0.000000	 0.569914
			CHANNELS 3 Zrotation Xrotation Yrotation
			JOINT LeftFoot
			{
				OFFSET	 0.000000	 0.000000	 0.544423
				CHANNELS 3 Zrotation Xrotation Yrotation
				JOINT LeftToeBase
				{
					OFFSET	 0.000000	 0.000000	 0.207117
					CHANNELS 3 Zrotation Xrotation Yrotation
					End Site
					{
						OFFSET	 0.000000	 0.000000	 0.207117
					}
				}
			}
		}
	}
	JOINT RightUpLeg
	{
		OFFSET	-0.124023	-0.008373	-0.065224
		CHANNELS 3 Zrotation Xrotation Yrotation
		JOINT RightLeg
		{
			OFFSET	 0.000000	 0.000000	 0.570047
			CHANNELS 3 Zrotation Xrotation Yrotation
			JOINT RightFoot
			{
				OFFSET	 0.000000	 0.000000	 0.544354
				CHANNELS 3 Zrotation Xrotation Yrotation
				JOINT RightToeBase
				{
					OFFSET	 0.000000	 0.000000	 0.207540
					CHANNELS 3 Zrotation Xrotation Yrotation
					End Site
					{
						OFFSET	 0.000000	 0.000000	 0.207540
					}
				}
			}
		}
	}
	JOINT Spine
	{
		OFFSET	 0.000184	-0.007763	 0.117403
		CHANNELS 3 Zrotation Xrotation Yrotation
		JOINT Spine1
		{
			OFFSET	 0.000000	 0.000000	 0.137269
			CHANNELS 3 Zrotation Xrotation Yrotation
			JOINT Spine2
			{
				OFFSET	 0.000000	 0.000000	 0.156879
				CHANNELS 3 Zrotation Xrotation Yrotation
				JOINT LeftShoulder
				{
					OFFSET	 0.080501	-0.002496	 0.160144
					CHANNELS 3 Zrotation Xrotation Yrotation
					JOINT LeftArm
					{
						OFFSET	 0.000000	 0.000000	 0.164363
						CHANNELS 3 Zrotation Xrotation Yrotation
						JOINT LeftForeArm
						{
							OFFSET	 0.000000	 0.000000	 0.364576
							CHANNELS 3 Zrotation Xrotation Yrotation
							JOINT LeftHand
							{
								OFFSET	 0.000000	 0.000000	 0.360812
								CHANNELS 3 Zrotation Xrotation Yrotation
								JOINT LeftHandIndex1
								{
									OFFSET	 0.000000	 0.000000	 0.086006
									CHANNELS 3 Zrotation Xrotation Yrotation
									JOINT LeftHandIndex2
									{
										OFFSET	 0.000000	 0.000000	 0.047236
										CHANNELS 3 Zrotation Xrotation Yrotation
										JOINT LeftHandIndex3
										{
											OFFSET	-0.004284	-0.000551	 0.038166
											CHANNELS 3 Zrotation Xrotation Yrotation
											End Site
											{
												OFFSET	-0.004284	-0.000551	 0.038166
											}
										}
									}
								}
							}
						}
					}
				}
				JOINT Neck
				{
					OFFSET	 0.000000	 0.000000	 0.176489
					CHANNELS 3 Zrotation Xrotation Yrotation
					JOINT Head
					{
						OFFSET	 0.000000	-0.001747	 0.077940
						CHANNELS 3 Zrotation Xrotation Yrotation
						End Site
						{
							OFFSET	 0.000000	-0.001747	 0.077940
						}
					}
				}
				JOINT RightShoulder
				{
					OFFSET	-0.080363	 0.000306	 0.159706
					CHANNELS 3 Zrotation Xrotation Yrotation
					JOINT RightArm
					{
						OFFSET	 0.000000	 0.000000	 0.164196
						CHANNELS 3 Zrotation Xrotation Yrotation
						JOINT RightForeArm
						{
							OFFSET	 0.000000	 0.000000	 0.365611
							CHANNELS 3 Zrotation Xrotation Yrotation
							JOINT RightHand
							{
								OFFSET	 0.000000	 0.000000	 0.360648
								CHANNELS 3 Zrotation Xrotation Yrotation
								JOINT RightHandIndex1
								{
									OFFSET	 0.000000	 0.000000	 0.069977
									CHANNELS 3 Zrotation Xrotation Yrotation
									JOINT RightHandIndex2
									{
										OFFSET	 0.000000	 0.000000	 0.052305
										CHANNELS 3 Zrotation Xrotation Yrotation
										JOINT RightHandIndex3
										{
											OFFSET	 0.009002	-0.000782	 0.042196
											CHANNELS 3 Zrotation Xrotation Yrotation
											End Site
											{
												OFFSET	 0.009002	-0.000782	 0.042196
											}
										}
									}
								}
							}
						}
					}
				}
			}
		}
	}
}
MOTION
Frames:    11
Frame Time: 0.03333334
 0.000405	 0.044572	 1.273289	-0.061229	 3.002214	 0.754897	 1.468168	-7.551620	 178.129900	 2.202619	-15.652620	 0.707114	 0.120471	 72.321870	-0.197009	-2.385833	 28.452750	 0.000004	 5.940471	-6.739107	-178.868900	-0.741692	-13.418160	 1.024020	 5.920457	 70.977100	 0.342917	 2.384659	 28.388700	-0.000001	 2.552323	 7.799225	-0.390544	 1.476581	-8.235958	 0.334258	-3.755770	 12.146570	 0.927322	-91.037030	 68.900540	-177.530200	-5.861208	-0.277298	-7.164859	 24.833530	-5.530355	-20.678800	-6.916976	-8.923666	-4.275674	-2.027600	 6.559038	 9.033609	-5.188889	 0.308190	 3.541030	-5.234859	 0.342567	 0.430617	 4.652186	 20.104610	-7.425916	-8.905254	-14.752360	 1.678785	 88.833850	 67.463360	 177.010100	 10.399300	 7.070207	 15.891860	-28.301680	-2.452835	 6.478534	 3.874889	-8.580923	 5.674297	 1.803333	 3.979147	-15.098590	 4.898592	 3.004813	-9.310344	 5.224449	 0.395017	 2.014677
-0.000100	 0.048181	 1.271404	 0.019308	 3.991676	 0.845441	 1.074432	-9.564690	 177.995800	 2.157480	-17.226650	 0.780862	 0.312833	 72.955180	-0.396813	-2.385833	 28.452750	 0.000004	 5.988401	-8.680302	-178.918800	-0.707590	-14.879540	 1.141938	 6.170977	 71.491640	 0.076391	 2.384659	 28.388700	-0.000001	 2.466055	 8.466268	-0.386341	 1.457309	-11.196680	 0.287996	-3.700089	 15.471050	 1.158800	-90.901290	 67.958220	-177.261600	-5.016958	-1.018765	-7.726147	 24.089030	-5.740885	-22.496660	-5.387663	-10.405170	-4.839422	-2.027600	 6.559038	 9.033609	-5.188889	 0.308190	 3.541030	-5.234859	 0.342567	 0.430617	 4.726214	 22.934120	-8.253188	-8.464694	-16.555220	 1.589759	 88.582500	 65.705700	 176.587000	 10.195830	 6.088989	 16.318190	-28.077130	-3.401868	 9.053515	 1.993538	-9.269588	 5.238627	 1.803333	 3.979147	-15.098590	 4.898592	 3.004813	-9.310344	 5.224449	 0.395017	 2.014677
-0.000786	 0.053739	 1.269132	 0.133049	 5.380105	 0.972652	 0.691234	-12.161130	 177.810500	 2.234895	-18.893100	 0.859096	 0.520493	 73.561110	-0.609223	-2.385833	 28.452760	 0.000004	 5.968059	-11.152320	-178.960100	-0.895470	-16.353040	 1.198860	 6.627787	 71.931540	-0.178481	 2.384659	 28.388700	-0.000001	 2.305452	 9.037498	-0.385342	 1.361583	-14.543370	 0.264194	-3.568518	 19.039010	 1.333569	-90.827930	 66.653060	-177.257600	-3.987912	-1.423176	-7.881004	 22.561670	-5.711420	-24.991910	-4.346202	-12.040880	-5.840589	-2.027600	 6.559038	 9.033609	-5.188889	 0.308190	 3.541030	-5.234859	 0.342567	 0.430617	 4.561078	 25.371860	-8.771154	-7.798337	-18.064580	 1.431582	 88.407550	 63.529970	 176.473100	 9.364386	 5.217283	 16.647080	-27.372790	-4.244489	 11.665930	-0.089835	-9.935247	 5.102409	 1.803333	 3.979147	-15.098590	 4.898592	 3.004813	-9.310344	 5.224449	 0.395017	 2.014677
-0.001389	 0.059915	 1.267017	 0.266446	 6.798413	 1.084599	 0.237357	-14.668320	 177.607100	 2.226136	-20.238020	 0.914726	 0.699331	 73.932610	-0.768608	-2.385832	 28.452790	-0.000001	 5.928370	-13.543660	-178.956200	-1.182825	-17.532850	 1.182865	 7.222123	 72.211170	-0.446658	 2.384659	 28.388700	-0.000001	 2.089928	 9.269727	-0.383813	 1.206774	-17.234930	 0.263651	-3.367376	 21.735760	 1.394425	-90.916790	 65.439830	-177.667900	-2.979470	-1.202683	-7.454387	 20.836540	-5.400350	-27.317630	-4.093671	-13.217440	-6.939146	-2.027600	 6.559038	 9.033609	-5.188889	 0.308190	 3.541030	-5.234859	 0.342567	 0.430617	 4.197488	 26.619190	-8.826620	-7.113662	-18.792950	 1.257734	 88.451980	 61.739880	 176.819100	 7.962179	 4.851787	 16.544020	-26.465800	-4.735286	 13.620100	-1.757107	-10.359640	 5.287298	 1.803333	 3.979147	-15.098590	 4.898592	 3.004813	-9.310344	 5.224449	 0.395017	 2.014677
-0.001739	 0.069102	 1.263566	 0.574623	 8.793674	 1.123258	-0.489415	-18.207710	 177.414200	 2.146811	-22.079430	 0.964097	 1.003002	 74.151120	-0.983294	-2.385833	 28.452760	 0.000004	 5.724506	-17.024130	-178.845100	-1.387461	-19.418320	 1.251259	 8.009033	 72.665250	-1.080983	 2.384659	 28.388700	-0.000001	 1.658140	 8.918021	-0.354668	 0.979196	-20.265210	 0.298956	-2.987454	 24.208100	 1.417011	-91.539650	 64.838400	-179.376400	-1.741013	 0.664020	-4.941671	 19.523220	-5.321703	-30.315730	-3.946787	-13.976480	-8.200720	-2.027600	 6.559038	 9.033609	-5.188889	 0.308190	 3.541030	-5.234859	 0.342567	 0.430617	 3.700868	 26.959740	-8.740683	-6.179120	-19.016240	 1.173879	 89.029850	 60.955630	 178.249800	 5.485669	 6.035476	 14.503620	-25.674900	-5.350070	 15.990560	-3.516004	-10.836560	 5.465083	 1.803333	 3.979147	-15.098590	 4.898592	 3.004813	-9.310344	 5.224449	 0.395017	 2.014677
-0.002186	 0.080531	 1.259394	 0.804389	 11.060260	 1.061558	-1.164142	-22.281130	 177.259300	 2.172932	-24.181180	 1.061310	 1.168801	 74.534720	-1.144741	-2.385832	 28.452790	-0.000001	 5.769436	-21.045820	-178.554900	-1.550391	-21.556300	 1.322688	 8.887379	 73.218480	-1.803528	 2.384659	 28.388700	-0.000001	 1.134706	 8.338209	-0.185150	 0.675272	-22.501110	 0.133978	-2.343551	 25.931960	 1.560978	-92.335040	 65.008610	 178.514400	-0.894239	 3.831748	-1.915826	 19.228690	-5.855374	-33.633830	-3.329302	-14.522040	-8.802624	-2.027600	 6.559038	 9.033609	-5.188889	 0.308190	 3.541030	-5.234859	 0.342567	 0.430617	 3.256358	 25.760250	-8.942921	-5.085786	-18.391750	 1.071369	 89.807370	 60.434070	-179.942400	 2.919378	 7.967782	 12.001050	-24.407650	-5.872574	 18.769170	-4.480184	-11.516530	 5.618216	 1.803333	 3.979147	-15.098590	 4.898592	 3.004813	-9.310344	 5.224449	 0.395017	 2.014677
-0.003387	 0.095743	 1.255621	 1.515846	 14.229050	 1.031648	-2.494249	-27.395790	 176.765700	 2.620305	-25.880210	 1.326565	 0.554991	 74.307010	-0.874745	-2.385832	 28.452790	-0.000001	 5.335198	-25.904640	-178.310700	-1.375607	-23.020680	 1.476378	 8.745665	 72.894400	-1.793029	 2.384659	 28.388700	-0.000001	 0.428876	 7.328406	-0.006527	-0.016064	-23.921930	-0.196264	-1.600482	 26.498090	 1.353424	-93.094540	 65.223540	 176.460500	 0.567787	 7.635801	 0.766514	 19.009470	-6.510758	-37.190510	-2.573888	-14.668280	-9.175646	-2.027600	 6.559038	 9.033609	-5.188889	 0.308190	 3.541030	-5.234859	 0.342567	 0.430617	 2.878846	 24.782120	-8.778569	-3.967081	-18.052800	 0.924003	 90.636340	 60.399400	-178.048900	 0.067431	 10.523910	 9.957012	-23.142000	-6.243043	 21.423980	-5.186663	-11.933480	 5.912751	 1.803333	 3.979147	-15.098590	 4.898592	 3.004813	-9.310344	 5.224449	 0.395017	 2.014677
-0.005415	 0.114359	 1.252071	 2.684942	 18.038520	 0.913932	-4.512416	-33.067550	 175.875500	 3.355785	-26.882010	 1.707639	-0.749026	 72.893840	-0.131297	-2.385833	 28.452760	 0.000004	 4.476352	-31.479970	-178.110100	-1.197878	-24.247180	 1.623640	 8.279381	 71.832140	-1.457827	 2.384659	 28.388700	-0.000001	-0.442732	 6.347505	 0.170547	-1.051583	-24.591730	-0.593746	-0.781945	 26.156710	 0.801660	-93.775140	 65.490680	 174.564800	 2.902261	 12.090750	 1.819119	 18.841830	-7.017688	-39.836710	-1.843068	-14.634150	-9.474505	-2.027600	 6.559038	 9.033609	-5.188889	 0.308190	 3.541030	-5.234859	 0.342567	 0.430617	 2.544190	 24.202230	-8.095253	-2.851754	-18.141440	 0.656193	 91.455080	 60.814030	-176.127200	-2.990179	 13.842300	 9.379163	-22.188670	-6.351976	 23.105890	-5.765587	-12.070930	 6.309257	 1.803333	 3.979147	-15.098590	 4.898592	 3.004813	-9.310344	 5.224449	 0.395017	 2.014677
-0.008152	 0.133998	 1.247548	 4.002379	 21.612760	 0.563004	-6.877579	-38.343050	 174.760000	 4.035036	-27.667660	 2.070326	-2.004781	 72.252130	 0.563108	-2.385833	 28.452750	 0.000004	 3.521942	-36.956760	-177.861200	-1.716455	-25.913370	 1.500323	 8.924236	 71.706050	-1.684796	 2.384659	 28.388700	-0.000001	-1.358113	 6.332028	 0.380569	-2.171244	-24.420350	-0.835378	 0.133076	 25.387150	 0.009101	-94.302560	 66.083460	 172.922700	 5.629210	 16.513570	 0.175472	 18.895570	-7.322628	-40.848640	-1.303463	-14.837560	-9.754972	-2.027600	 6.559038	 9.033609	-5.188889	 0.308190	 3.541030	-5.234859	 0.342567	 0.430617	 2.221070	 23.737280	-6.928785	-1.808195	-18.500850	 0.146201	 92.183940	 61.535790	-174.300900	-5.751368	 17.519430	 10.886770	-21.781480	-6.387051	 23.840810	-6.181711	-12.077290	 6.675863	 1.803333	 3.979147	-15.098590	 4.898592	 3.004813	-9.310344	 5.224449	 0.395017	 2.014677
-0.011156	 0.148379	 1.240256	 4.389390	 22.857130	 0.264610	-7.834891	-41.307420	 174.199700	 4.113598	-29.938150	 2.264378	-2.737906	 73.041280	 1.328606	-2.385833	 28.452750	 0.000004	 3.536217	-40.254210	-177.543900	-1.635800	-29.125490	 1.710263	 9.890347	 72.800260	-2.799348	 2.384659	 28.388700	-0.000001	-1.928122	 9.035785	 0.717751	-2.758343	-22.409650	-0.593568	 1.485412	 24.829790	-0.907543	-94.538760	 67.753680	 171.479400	 8.156376	 19.797550	-4.159108	 19.065510	-7.777161	-41.971620	-0.811332	-15.421420	-9.870708	-2.027600	 6.559038	 9.033609	-5.188889	 0.308190	 3.541030	-5.234859	 0.342567	 0.430617	 1.690238	 22.932250	-6.234359	-0.574724	-18.915020	-0.058603	 92.664560	 62.314260	-172.963500	-7.232818	 20.727730	 14.405480	-21.150790	-6.644393	 25.733240	-5.379244	-12.742590	 7.385933	 1.803333	 3.979147	-15.098590	 4.898592	 3.004813	-9.310344	 5.224449	 0.395017	 2.014677
-0.013487	 0.164928	 1.232999	 3.902198	 24.367520	 0.036793	-7.804513	-44.686870	 173.939000	 4.222983	-32.412390	 2.490713	-3.200509	 73.799150	 1.828363	-2.385833	 28.452750	 0.000004	 4.798828	-43.906060	-176.611700	-2.017505	-32.198710	 1.668377	 11.989610	 73.803700	-4.695732	 2.384659	 28.388700	-0.000001	-2.364636	 11.495130	 1.010319	-2.698154	-18.983890	 0.186617	 2.897775	 23.378680	-1.646251	-94.522510	 69.819760	 170.156300	 10.139180	 21.571490	-9.095692	 18.763210	-7.974648	-43.725850	-1.047927	-16.714120	-9.998745	-2.027600	 6.559038	 9.033609	-5.188889	 0.308190	 3.541030	-5.234859	 0.342567	 0.430617	 1.208779	 21.811790	-5.998554	 0.677931	-19.169680	 0.054810	 93.004840	 63.831050	-171.632700	-8.602189	 23.745080	 19.320160	-20.323770	-6.702045	 27.430940	-3.922108	-13.930370	 8.236786	 1.803333	 3.979147	-15.098590	 4.898592	 3.004813	-9.310344	 5.224449	 0.395017	 2.014677
